<svg width="210" height="63" viewBox="0 0 210 63" fill="none" xmlns="http://www.w3.org/2000/svg">
<path d="M36.504 8.08C37.4747 8.08 38.2547 8.392 38.844 9.016C39.4333 9.60533 39.728 10.4027 39.728 11.408V42.192C39.728 43.1627 39.4507 43.9253 38.896 44.48C38.3413 45.0347 37.6133 45.312 36.712 45.312C35.8107 45.312 35.1 45.0347 34.58 44.48C34.06 43.9253 33.8 43.1627 33.8 42.192V20.768L24.96 37.512C24.544 38.2747 24.0933 38.8467 23.608 39.228C23.1227 39.5747 22.5507 39.748 21.892 39.748C21.2333 39.748 20.6613 39.5747 20.176 39.228C19.6907 38.8813 19.24 38.3093 18.824 37.512L9.932 21.028V42.192C9.932 43.128 9.65467 43.8907 9.1 44.48C8.58 45.0347 7.86933 45.312 6.968 45.312C6.06667 45.312 5.356 45.0347 4.836 44.48C4.316 43.9253 4.056 43.1627 4.056 42.192V11.408C4.056 10.4027 4.33333 9.60533 4.888 9.016C5.47733 8.392 6.25733 8.08 7.228 8.08C8.58 8.08 9.63733 8.82533 10.4 10.316L21.944 32.312L33.436 10.316C34.1987 8.82533 35.2213 8.08 36.504 8.08ZM61.6987 45.416C59.0987 45.416 56.8107 44.8787 54.8347 43.804C52.8933 42.7293 51.3853 41.1867 50.3107 39.176C49.236 37.1653 48.6987 34.8253 48.6987 32.156C48.6987 29.4867 49.236 27.164 50.3107 25.188C51.3853 23.1773 52.8933 21.6347 54.8347 20.56C56.8107 19.4853 59.0987 18.948 61.6987 18.948C64.2987 18.948 66.5693 19.4853 68.5107 20.56C70.4867 21.6347 71.9947 23.1773 73.0347 25.188C74.1093 27.164 74.6467 29.4867 74.6467 32.156C74.6467 34.8253 74.1093 37.1653 73.0347 39.176C71.9947 41.1867 70.4867 42.7293 68.5107 43.804C66.5693 44.8787 64.2987 45.416 61.6987 45.416ZM61.6467 40.372C63.7613 40.372 65.3733 39.6787 66.4827 38.292C67.592 36.9053 68.1467 34.86 68.1467 32.156C68.1467 29.4867 67.592 27.4587 66.4827 26.072C65.3733 24.6507 63.7787 23.94 61.6987 23.94C59.6187 23.94 58.0067 24.6507 56.8627 26.072C55.7533 27.4587 55.1987 29.4867 55.1987 32.156C55.1987 34.86 55.7533 36.9053 56.8627 38.292C57.972 39.6787 59.5667 40.372 61.6467 40.372ZM97.7808 18.948C100.831 18.948 103.102 19.8147 104.593 21.548C106.083 23.2813 106.829 25.8987 106.829 29.4V42.192C106.829 43.1627 106.534 43.9253 105.945 44.48C105.39 45.0347 104.61 45.312 103.605 45.312C102.599 45.312 101.802 45.0347 101.213 44.48C100.623 43.9253 100.329 43.1627 100.329 42.192V29.764C100.329 27.788 99.9475 26.3493 99.1848 25.448C98.4568 24.5467 97.2955 24.096 95.7008 24.096C93.8288 24.096 92.3208 24.6853 91.1768 25.864C90.0675 27.0427 89.5128 28.62 89.5128 30.596V42.192C89.5128 43.1627 89.2181 43.9253 88.6288 44.48C88.0395 45.0347 87.2421 45.312 86.2368 45.312C85.2315 45.312 84.4341 45.0347 83.8448 44.48C83.2901 43.9253 83.0128 43.1627 83.0128 42.192V22.068C83.0128 21.1667 83.3075 20.4387 83.8968 19.884C84.4861 19.3293 85.2835 19.052 86.2888 19.052C87.1901 19.052 87.9181 19.3293 88.4728 19.884C89.0621 20.404 89.3568 21.0973 89.3568 21.964V23.368C90.2235 21.9467 91.3848 20.8547 92.8408 20.092C94.2968 19.3293 95.9435 18.948 97.7808 18.948ZM137.647 8.08C138.617 8.08 139.415 8.35733 140.039 8.912C140.663 9.46667 140.975 10.1947 140.975 11.096V42.192C140.975 43.128 140.68 43.8733 140.091 44.428C139.501 44.9827 138.721 45.26 137.751 45.26C136.78 45.26 136 44.9827 135.411 44.428C134.821 43.8733 134.527 43.128 134.527 42.192V40.892C133.764 42.3133 132.655 43.4227 131.199 44.22C129.777 45.0173 128.148 45.416 126.311 45.416C124.127 45.416 122.168 44.8613 120.435 43.752C118.736 42.6427 117.401 41.0827 116.431 39.072C115.495 37.0267 115.027 34.6867 115.027 32.052C115.027 29.4173 115.495 27.112 116.431 25.136C117.401 23.16 118.736 21.6347 120.435 20.56C122.133 19.4853 124.092 18.948 126.311 18.948C128.148 18.948 129.777 19.3293 131.199 20.092C132.62 20.8547 133.712 21.9293 134.475 23.316V10.992C134.475 10.1253 134.752 9.432 135.307 8.912C135.896 8.35733 136.676 8.08 137.647 8.08ZM128.027 40.372C130.107 40.372 131.701 39.6613 132.811 38.24C133.955 36.8187 134.527 34.7907 134.527 32.156C134.527 29.5213 133.955 27.5107 132.811 26.124C131.701 24.7027 130.124 23.992 128.079 23.992C125.999 23.992 124.387 24.6853 123.243 26.072C122.099 27.4587 121.527 29.452 121.527 32.052C121.527 34.6867 122.099 36.732 123.243 38.188C124.387 39.644 125.981 40.372 128.027 40.372ZM207.516 39.956C208.209 40.6147 208.556 41.36 208.556 42.192C208.556 42.9893 208.261 43.7 207.672 44.324C207.117 44.948 206.458 45.26 205.696 45.26C204.933 45.26 204.222 44.948 203.564 44.324L191.396 33.3V42.192C191.396 43.1973 191.084 43.96 190.46 44.48C189.836 45 189.056 45.26 188.12 45.26C187.184 45.26 186.404 45 185.78 44.48C185.19 43.96 184.896 43.1973 184.896 42.192V11.148C184.896 10.1427 185.19 9.38 185.78 8.86C186.404 8.34 187.184 8.08 188.12 8.08C189.056 8.08 189.836 8.34 190.46 8.86C191.084 9.38 191.396 10.1427 191.396 11.148V30.7L202.524 20.04C203.148 19.416 203.858 19.104 204.656 19.104C205.453 19.104 206.146 19.3987 206.736 19.988C207.325 20.5773 207.62 21.2707 207.62 22.068C207.62 22.8653 207.29 23.5933 206.632 24.252L198.468 31.844L207.516 39.956Z" fill="#2E7D32"/>
<path d="M170.045 16.3622L172.097 20.5193L176.685 21.186L173.365 24.4218L174.149 28.991L170.045 26.8338L165.942 28.991L166.726 24.4218L163.406 21.186L167.994 20.5193L170.045 16.3622Z" fill="#FFEB3B"/>
<path d="M169.648 35.5702C162.9 35.5702 157.43 30.1 157.43 23.3523C157.43 19.5987 159.123 16.2413 161.786 14C154.029 14.8759 148 21.4583 148 29.4499C148 38.0379 154.962 44.9999 163.55 44.9999C171.542 44.9999 178.124 38.9709 179 31.2135C176.759 33.8771 173.401 35.5702 169.648 35.5702Z" fill="#2E7D32"/>
<circle cx="54.5" cy="13.5" r="1.5" fill="#FFEB3B"/>
<circle cx="61.5" cy="13.5" r="1.5" fill="#FFEB3B"/>
<circle cx="68.5" cy="13.5" r="1.5" fill="#FFEB3B"/>
</svg>
