<svg width="31" height="31" viewBox="0 0 31 31" fill="none" xmlns="http://www.w3.org/2000/svg">
<path d="M22.0453 2.36224L24.0969 6.51934L28.6846 7.18596L25.3649 10.4218L26.1486 14.991L22.0453 12.8338L17.9419 14.991L18.7256 10.4218L15.4059 7.18596L19.9936 6.51934L22.0453 2.36224Z" fill="#FFEB3B"/>
<path d="M21.6477 21.5702C14.8999 21.5702 9.42976 16.1 9.42976 9.35226C9.42976 5.59871 11.1229 2.24127 13.7864 0C6.02896 0.875872 0 7.45829 0 15.4499C0 24.0379 6.96199 30.9999 15.55 30.9999C23.5416 30.9999 30.124 24.9709 31 17.2135C28.7587 19.8771 25.4013 21.5702 21.6477 21.5702Z" fill="white"/>
</svg>
