<svg width="210" height="71" viewBox="0 0 210 71" fill="none" xmlns="http://www.w3.org/2000/svg">
<path d="M36.504 16.08C37.4747 16.08 38.2547 16.392 38.844 17.016C39.4333 17.6053 39.728 18.4027 39.728 19.408V50.192C39.728 51.1627 39.4507 51.9253 38.896 52.48C38.3413 53.0347 37.6133 53.312 36.712 53.312C35.8107 53.312 35.1 53.0347 34.58 52.48C34.06 51.9253 33.8 51.1627 33.8 50.192V28.768L24.96 45.512C24.544 46.2747 24.0933 46.8467 23.608 47.228C23.1227 47.5747 22.5507 47.748 21.892 47.748C21.2333 47.748 20.6613 47.5747 20.176 47.228C19.6907 46.8813 19.24 46.3093 18.824 45.512L9.932 29.028V50.192C9.932 51.128 9.65467 51.8907 9.1 52.48C8.58 53.0347 7.86933 53.312 6.968 53.312C6.06667 53.312 5.356 53.0347 4.836 52.48C4.316 51.9253 4.056 51.1627 4.056 50.192V19.408C4.056 18.4027 4.33333 17.6053 4.888 17.016C5.47733 16.392 6.25733 16.08 7.228 16.08C8.58 16.08 9.63733 16.8253 10.4 18.316L21.944 40.312L33.436 18.316C34.1987 16.8253 35.2213 16.08 36.504 16.08ZM61.6987 53.416C59.0987 53.416 56.8107 52.8787 54.8347 51.804C52.8933 50.7293 51.3853 49.1867 50.3107 47.176C49.236 45.1653 48.6987 42.8253 48.6987 40.156C48.6987 37.4867 49.236 35.164 50.3107 33.188C51.3853 31.1773 52.8933 29.6347 54.8347 28.56C56.8107 27.4853 59.0987 26.948 61.6987 26.948C64.2987 26.948 66.5693 27.4853 68.5107 28.56C70.4867 29.6347 71.9947 31.1773 73.0347 33.188C74.1093 35.164 74.6467 37.4867 74.6467 40.156C74.6467 42.8253 74.1093 45.1653 73.0347 47.176C71.9947 49.1867 70.4867 50.7293 68.5107 51.804C66.5693 52.8787 64.2987 53.416 61.6987 53.416ZM61.6467 48.372C63.7613 48.372 65.3733 47.6787 66.4827 46.292C67.592 44.9053 68.1467 42.86 68.1467 40.156C68.1467 37.4867 67.592 35.4587 66.4827 34.072C65.3733 32.6507 63.7787 31.94 61.6987 31.94C59.6187 31.94 58.0067 32.6507 56.8627 34.072C55.7533 35.4587 55.1987 37.4867 55.1987 40.156C55.1987 42.86 55.7533 44.9053 56.8627 46.292C57.972 47.6787 59.5667 48.372 61.6467 48.372ZM97.7808 26.948C100.831 26.948 103.102 27.8147 104.593 29.548C106.083 31.2813 106.829 33.8987 106.829 37.4V50.192C106.829 51.1627 106.534 51.9253 105.945 52.48C105.39 53.0347 104.61 53.312 103.605 53.312C102.599 53.312 101.802 53.0347 101.213 52.48C100.623 51.9253 100.329 51.1627 100.329 50.192V37.764C100.329 35.788 99.9475 34.3493 99.1848 33.448C98.4568 32.5467 97.2955 32.096 95.7008 32.096C93.8288 32.096 92.3208 32.6853 91.1768 33.864C90.0675 35.0427 89.5128 36.62 89.5128 38.596V50.192C89.5128 51.1627 89.2181 51.9253 88.6288 52.48C88.0395 53.0347 87.2421 53.312 86.2368 53.312C85.2315 53.312 84.4341 53.0347 83.8448 52.48C83.2901 51.9253 83.0128 51.1627 83.0128 50.192V30.068C83.0128 29.1667 83.3075 28.4387 83.8968 27.884C84.4861 27.3293 85.2835 27.052 86.2888 27.052C87.1901 27.052 87.9181 27.3293 88.4728 27.884C89.0621 28.404 89.3568 29.0973 89.3568 29.964V31.368C90.2235 29.9467 91.3848 28.8547 92.8408 28.092C94.2968 27.3293 95.9435 26.948 97.7808 26.948ZM137.647 16.08C138.617 16.08 139.415 16.3573 140.039 16.912C140.663 17.4667 140.975 18.1947 140.975 19.096V50.192C140.975 51.128 140.68 51.8733 140.091 52.428C139.501 52.9827 138.721 53.26 137.751 53.26C136.78 53.26 136 52.9827 135.411 52.428C134.821 51.8733 134.527 51.128 134.527 50.192V48.892C133.764 50.3133 132.655 51.4227 131.199 52.22C129.777 53.0173 128.148 53.416 126.311 53.416C124.127 53.416 122.168 52.8613 120.435 51.752C118.736 50.6427 117.401 49.0827 116.431 47.072C115.495 45.0267 115.027 42.6867 115.027 40.052C115.027 37.4173 115.495 35.112 116.431 33.136C117.401 31.16 118.736 29.6347 120.435 28.56C122.133 27.4853 124.092 26.948 126.311 26.948C128.148 26.948 129.777 27.3293 131.199 28.092C132.62 28.8547 133.712 29.9293 134.475 31.316V18.992C134.475 18.1253 134.752 17.432 135.307 16.912C135.896 16.3573 136.676 16.08 137.647 16.08ZM128.027 48.372C130.107 48.372 131.701 47.6613 132.811 46.24C133.955 44.8187 134.527 42.7907 134.527 40.156C134.527 37.5213 133.955 35.5107 132.811 34.124C131.701 32.7027 130.124 31.992 128.079 31.992C125.999 31.992 124.387 32.6853 123.243 34.072C122.099 35.4587 121.527 37.452 121.527 40.052C121.527 42.6867 122.099 44.732 123.243 46.188C124.387 47.644 125.981 48.372 128.027 48.372ZM207.516 47.956C208.209 48.6147 208.556 49.36 208.556 50.192C208.556 50.9893 208.261 51.7 207.672 52.324C207.117 52.948 206.458 53.26 205.696 53.26C204.933 53.26 204.222 52.948 203.564 52.324L191.396 41.3V50.192C191.396 51.1973 191.084 51.96 190.46 52.48C189.836 53 189.056 53.26 188.12 53.26C187.184 53.26 186.404 53 185.78 52.48C185.19 51.96 184.896 51.1973 184.896 50.192V19.148C184.896 18.1427 185.19 17.38 185.78 16.86C186.404 16.34 187.184 16.08 188.12 16.08C189.056 16.08 189.836 16.34 190.46 16.86C191.084 17.38 191.396 18.1427 191.396 19.148V38.7L202.524 28.04C203.148 27.416 203.858 27.104 204.656 27.104C205.453 27.104 206.146 27.3987 206.736 27.988C207.325 28.5773 207.62 29.2707 207.62 30.068C207.62 30.8653 207.29 31.5933 206.632 32.252L198.468 39.844L207.516 47.956Z" fill="white"/>
<path d="M170.045 24.3622L172.097 28.5193L176.685 29.186L173.365 32.4218L174.149 36.991L170.045 34.8338L165.942 36.991L166.726 32.4218L163.406 29.186L167.994 28.5193L170.045 24.3622Z" fill="#FFEB3B"/>
<path d="M169.648 43.5702C162.9 43.5702 157.43 38.1 157.43 31.3523C157.43 27.5987 159.123 24.2413 161.786 22C154.029 22.8759 148 29.4583 148 37.4499C148 46.0379 154.962 52.9999 163.55 52.9999C171.542 52.9999 178.124 46.9709 179 39.2135C176.759 41.8771 173.401 43.5702 169.648 43.5702Z" fill="white"/>
<circle cx="54.5" cy="21.5" r="1.5" fill="#FFEB3B"/>
<circle cx="61.5" cy="21.5" r="1.5" fill="#FFEB3B"/>
<circle cx="68.5" cy="21.5" r="1.5" fill="#FFEB3B"/>
</svg>
